<svg width="40" height="40" viewBox="0 0 40 40" fill="none" xmlns="http://www.w3.org/2000/svg">
<path opacity="0.4" d="M20.0001 13.15L18.2168 16.25C17.8168 16.9334 18.1501 17.5 18.9334 17.5H21.0501C21.8501 17.5 22.1668 18.0667 21.7668 18.75L20.0001 21.85" stroke="#3F64AB" stroke-width="2.5" stroke-linecap="round" stroke-linejoin="round"/>
<path d="M13.8329 30.0668V28.1335C9.99961 25.8168 6.84961 21.3001 6.84961 16.5001C6.84961 8.25013 14.4329 1.78346 22.9996 3.65013C26.7663 4.48346 30.0663 6.98346 31.7829 10.4335C35.2663 17.4335 31.5996 24.8668 26.2163 28.1168V30.0501C26.2163 30.5335 26.3996 31.6501 24.6163 31.6501H15.4329C13.5996 31.6668 13.8329 30.9501 13.8329 30.0668Z" stroke="#3F64AB" stroke-width="2.5" stroke-linecap="round" stroke-linejoin="round"/>
<path opacity="0.4" d="M14.1665 36.6667C17.9832 35.5834 22.0165 35.5834 25.8332 36.6667" stroke="#3F64AB" stroke-width="2.5" stroke-linecap="round" stroke-linejoin="round"/>
</svg>
