<svg width="38" height="24" viewBox="0 0 38 24" fill="none" xmlns="http://www.w3.org/2000/svg">
<path d="M6.75645 0.937497C6.65167 0.942299 6.54981 0.97344 6.46024 1.02805C6.37068 1.08266 6.2963 1.15899 6.24395 1.25L0.332704 11.5337C0.250099 11.6776 0.227924 11.8484 0.271054 12.0088C0.314183 12.1691 0.419087 12.3058 0.562704 12.3887L4.4027 14.615C4.5459 14.6979 4.716 14.7207 4.87577 14.6783C5.03554 14.6359 5.17197 14.5318 5.2552 14.3887L6.67645 11.9175L7.7302 12.53L8.8877 13.2012C8.89075 14.6686 9.47348 16.0753 10.509 17.115C10.3574 17.4006 10.2803 17.7199 10.2846 18.0432C10.289 18.3665 10.3747 18.6836 10.534 18.965C10.909 19.62 11.619 19.8275 12.3277 19.7787C12.3065 20.14 12.274 20.51 12.4652 20.8438C12.9627 21.7113 14.049 21.9875 14.9377 21.5687C14.9627 21.835 14.8965 22.1062 15.0377 22.3525C15.2933 22.7924 15.7126 23.1132 16.204 23.2448C16.6954 23.3764 17.219 23.3082 17.6602 23.055L19.0002 22.2787L20.3402 23.055C20.7814 23.3082 21.305 23.3764 21.7964 23.2448C22.2878 23.1132 22.7071 22.7924 22.9627 22.3525C23.104 22.1062 23.0377 21.835 23.0627 21.5687C23.9502 21.9875 25.0377 21.7113 25.5365 20.8438C25.7277 20.51 25.694 20.14 25.6727 19.7787C26.3827 19.8262 27.0915 19.62 27.4665 18.9662C27.844 18.3112 27.6665 17.5925 27.269 17C27.5915 16.8375 27.929 16.68 28.1215 16.3462C28.1465 16.3037 28.159 16.2587 28.1802 16.2137C28.2671 16.1568 28.3384 16.079 28.3877 15.9875C28.879 15.1375 29.134 14.1675 29.134 13.185L29.6277 12.8987L30.2702 12.5275L30.909 12.1562L31.3265 11.915L32.7452 14.3837C32.7862 14.455 32.8409 14.5174 32.9061 14.5675C32.9714 14.6176 33.0458 14.6543 33.1252 14.6755C33.2047 14.6968 33.2875 14.7022 33.369 14.6913C33.4505 14.6805 33.5291 14.6537 33.6002 14.6125L37.4377 12.3875C37.5804 12.3048 37.6847 12.1691 37.7278 12.0099C37.7709 11.8507 37.7493 11.6809 37.6677 11.5375L31.7565 1.25375C31.699 1.1538 31.6149 1.07171 31.5137 1.01656C31.4124 0.961406 31.2979 0.935341 31.1827 0.941247C31.0837 0.946065 30.9873 0.974342 30.9015 1.02375L27.0627 3.25C26.9203 3.33328 26.8165 3.46952 26.7741 3.62899C26.7318 3.78846 26.7542 3.95823 26.8365 4.10125L27.0115 4.40625L26.589 4.65125L25.9502 5.02125L25.3102 5.3925L24.8027 5.68625C23.7638 5.08401 22.5578 4.83448 21.3652 4.975C20.6272 5.06516 19.9152 5.30461 19.2727 5.67875H19.2702L19.1015 5.77875L19.009 5.8325L18.7152 5.67375C18.0659 5.31826 17.3542 5.0912 16.619 5.005V5C15.4315 4.86125 14.2377 5.11125 13.2077 5.69125L12.0527 5.02125L10.994 4.40625L11.1665 4.10375C11.2488 3.96018 11.2709 3.78974 11.228 3.62973C11.1852 3.46972 11.0808 3.33317 10.9377 3.25L7.1002 1.025C6.99678 0.963446 6.87661 0.933065 6.75645 0.937497ZM7.0152 2.42L9.77396 4.02L4.48645 13.2187L1.7277 11.6187L7.0152 2.42ZM30.9852 2.42L36.2727 11.62L33.514 13.2187L28.229 4.01875L30.9852 2.42ZM27.6327 5.48875L30.704 10.8312L30.2815 11.075L29.6427 11.4462L29.0027 11.8175L28.9715 11.8375C28.8517 11.3609 28.6701 10.902 28.4315 10.4725C28.4282 10.4658 28.4249 10.4591 28.4215 10.4525C28.4152 10.44 28.4115 10.4275 28.404 10.415C28.3981 10.4023 28.3919 10.3898 28.3852 10.3775L26.869 7.7375C26.6038 7.28006 26.2751 6.86256 25.8927 6.4975L25.934 6.4725L26.574 6.1025L27.2152 5.73125L27.6327 5.48875ZM10.3702 5.49125L11.4265 6.10375L12.1052 6.5C11.7233 6.86402 11.3954 7.28073 11.1315 7.7375L9.6152 10.3775C9.35802 10.8398 9.16819 11.3365 9.05145 11.8525L8.3577 11.4487L7.29895 10.8337L10.3702 5.49125ZM22.3552 6.185C23.1802 6.24375 23.9777 6.54375 24.6477 7.05625C25.094 7.39875 25.484 7.83625 25.7852 8.36L27.3002 11C27.8502 11.9575 27.9927 13.025 27.7977 14.02C27.6841 13.9039 27.556 13.8031 27.4165 13.72L22.3027 10.7525C22.3359 10.3659 22.2597 9.97779 22.0827 9.6325C22.0689 9.59158 22.0509 9.5522 22.029 9.515V9.5125C22.024 9.50375 22.0165 9.4975 22.0115 9.4875C21.9994 9.47019 21.9865 9.4535 21.9727 9.4375C21.9115 9.3425 21.8502 9.245 21.7777 9.1625C21.6841 9.05966 21.5802 8.96668 21.4677 8.885H21.4652C21.1219 8.63847 20.7146 8.49665 20.2925 8.47668C19.8703 8.45672 19.4514 8.55946 19.0865 8.7725C19.078 8.7773 19.0697 8.7823 19.0615 8.7875L19.0302 8.8075L16.2377 10.4287C16.1986 10.449 16.1617 10.4733 16.1277 10.5012L16.0777 10.5312C15.4477 10.895 14.7027 10.6525 14.1115 10.1187L15.7765 9.14875L17.5077 8.145C17.5132 8.14216 17.5186 8.13924 17.524 8.13625L17.529 8.13375L19.3415 7.08375L19.8977 6.75875C20.6401 6.32481 21.4974 6.12485 22.3552 6.185ZM15.6365 6.2125C16.3441 6.17389 17.0509 6.30324 17.699 6.59L16.9027 7.0525C16.8856 7.06212 16.8689 7.07255 16.8527 7.08375L15.1502 8.07L12.7502 9.46625C12.6072 9.54933 12.503 9.68571 12.4603 9.8455C12.4177 10.0053 12.4401 10.1755 12.5227 10.3187C13.3902 11.8262 15.259 12.4537 16.7052 11.615L19.5027 9.99125C19.5112 9.98562 19.5195 9.97978 19.5277 9.97375L19.6715 9.88125L19.7152 9.85625C19.8249 9.79162 19.9458 9.74796 20.0715 9.7275C20.309 9.69 20.539 9.7475 20.719 9.88125C20.789 9.9325 20.844 10.0062 20.894 10.0787C20.761 10.0939 20.6364 10.1512 20.5385 10.2424C20.4406 10.3336 20.3746 10.4538 20.3501 10.5854C20.3256 10.7169 20.344 10.8528 20.4025 10.9731C20.461 11.0935 20.5566 11.1918 20.6752 11.2537L21.244 11.5825L21.2465 11.585C21.2801 11.6094 21.3161 11.6303 21.354 11.6475L26.7927 14.8012C26.8706 14.8445 26.939 14.903 26.9937 14.9733C27.0485 15.0436 27.0885 15.1243 27.1114 15.2104C27.1343 15.2965 27.1395 15.3864 27.1269 15.4746C27.1142 15.5628 27.0839 15.6475 27.0377 15.7237C26.9958 15.8015 26.9385 15.8699 26.8693 15.9248C26.8 15.9797 26.7203 16.0199 26.6351 16.0429C26.5498 16.066 26.4607 16.0714 26.3732 16.0588C26.2858 16.0463 26.2018 16.0161 26.1265 15.97L20.0477 12.445L19.4077 12.0737C19.3367 12.0325 19.2583 12.0057 19.1769 11.9948C19.0956 11.9839 19.0129 11.9892 18.9335 12.0102C18.8542 12.0313 18.7798 12.0678 18.7146 12.1176C18.6493 12.1674 18.5945 12.2296 18.5533 12.3006C18.5121 12.3716 18.4853 12.45 18.4744 12.5314C18.4635 12.6128 18.4688 12.6955 18.4898 12.7748C18.5109 12.8541 18.5474 12.9285 18.5972 12.9938C18.647 13.059 18.7092 13.1138 18.7802 13.155L19.4202 13.5262L19.7915 13.7412L25.499 17.0512H25.504L26.139 17.42C26.469 17.6112 26.574 18.0075 26.3827 18.3412C26.3409 18.419 26.2837 18.4874 26.2146 18.5422C26.1455 18.5971 26.0659 18.6373 25.9807 18.6603C25.8955 18.6834 25.8066 18.6888 25.7192 18.6763C25.6319 18.6638 25.548 18.6336 25.4727 18.5875L24.8327 18.2162L18.754 14.6912L18.114 14.32C17.9711 14.2453 17.8049 14.2286 17.6501 14.2736C17.4953 14.3185 17.3638 14.4215 17.2831 14.561C17.2025 14.7006 17.1788 14.8659 17.2172 15.0225C17.2555 15.1791 17.3529 15.3148 17.489 15.4012L18.129 15.7725L24.2052 19.2975H24.2077C24.2853 19.3406 24.3533 19.3989 24.4078 19.469C24.4623 19.539 24.5021 19.6193 24.5249 19.7051C24.5476 19.7908 24.5528 19.8803 24.5402 19.9681C24.5276 20.056 24.4974 20.1404 24.4515 20.2162C24.4097 20.294 24.3525 20.3624 24.2834 20.4172C24.2142 20.4721 24.1347 20.5123 24.0495 20.5353C23.9643 20.5584 23.8753 20.5638 23.788 20.5513C23.7006 20.5388 23.6167 20.5086 23.5415 20.4625L22.259 19.72L21.0752 19.0325L15.5427 15.8237C15.4717 15.7825 15.3933 15.7557 15.3119 15.7448C15.2306 15.7339 15.1479 15.7392 15.0685 15.7602C14.9892 15.7813 14.9148 15.8178 14.8495 15.8676C14.7843 15.9174 14.7295 15.9796 14.6883 16.0506C14.6471 16.1216 14.6203 16.2 14.6094 16.2814C14.5985 16.3628 14.6038 16.4455 14.6248 16.5248C14.6459 16.6041 14.6824 16.6785 14.7322 16.7438C14.782 16.809 14.8442 16.8638 14.9152 16.905L16.1952 17.6475L21.6327 20.8012C21.7108 20.8445 21.7806 20.9031 21.8354 20.9735C21.8903 21.0439 21.9304 21.1246 21.9533 21.2109C21.9762 21.2972 21.9814 21.3872 21.9686 21.4755C21.9558 21.5639 21.9253 21.6487 21.879 21.725C21.8371 21.8028 21.7798 21.8713 21.7105 21.9261C21.6412 21.9809 21.5614 22.021 21.476 22.0438C21.3906 22.0667 21.3015 22.0718 21.2141 22.0589C21.1267 22.046 21.0428 22.0153 20.9677 21.9687L14.6402 18.3012H14.6377C14.6352 18.3012 14.6327 18.3012 14.6302 18.3012L14.249 18.0825L12.2615 16.93C12.134 16.855 12.0277 16.7587 11.9115 16.6737C11.8267 16.5368 11.6924 16.4378 11.5365 16.3975C10.7983 15.7313 10.3121 14.8313 10.1596 13.8487C10.007 12.8662 10.1975 11.8611 10.699 11.0025L12.2152 8.3625C12.5621 7.7482 13.0565 7.22997 13.6538 6.85461C14.2511 6.47924 14.9325 6.25856 15.6365 6.2125ZM11.534 17.9337C11.5702 17.9562 11.5977 17.9862 11.634 18.0075L12.5915 18.5612C12.57 18.5709 12.5492 18.5817 12.529 18.5937C12.4536 18.6404 12.3695 18.6711 12.2819 18.6839C12.1942 18.6968 12.1049 18.6915 12.0193 18.6684C11.9338 18.6453 11.8539 18.6049 11.7846 18.5497C11.7153 18.4945 11.6581 18.4257 11.6165 18.3475C11.5455 18.2224 11.5165 18.0778 11.534 17.935V17.9337ZM13.8315 19.2825L15.169 20.0562L14.459 20.4687C14.3838 20.5148 14.2999 20.5451 14.2126 20.5577C14.1254 20.5704 14.0364 20.565 13.9512 20.5421C13.8661 20.5192 13.7865 20.4791 13.7173 20.4244C13.6481 20.3696 13.5908 20.3014 13.549 20.2237C13.5032 20.1476 13.4733 20.0629 13.4609 19.975C13.4486 19.887 13.4541 19.7974 13.477 19.7115C13.5 19.6257 13.54 19.5454 13.5947 19.4753C13.6493 19.4053 13.7175 19.3469 13.7952 19.3037C13.8079 19.2971 13.8205 19.29 13.8327 19.2825H13.8315ZM16.4127 20.7762L17.7552 21.555L17.0327 21.9725C16.9575 22.0189 16.8737 22.0494 16.7863 22.0622C16.6989 22.075 16.6099 22.0698 16.5245 22.047C16.4392 22.0242 16.3595 21.9842 16.2902 21.9295C16.2209 21.8747 16.1634 21.8064 16.1215 21.7287C16.0754 21.6523 16.0451 21.5673 16.0327 21.4789C16.0202 21.3905 16.0256 21.3005 16.0487 21.2142C16.0718 21.128 16.1121 21.0473 16.1671 20.977C16.2222 20.9067 16.2908 20.8482 16.369 20.805C16.3839 20.796 16.3985 20.7864 16.4127 20.7762Z" fill="#3F64AB"/>
</svg>
