<svg width="40" height="40" viewBox="0 0 40 40" fill="none" xmlns="http://www.w3.org/2000/svg">
<path opacity="0.4" d="M12.4668 30.5834L17.6335 34.5834C18.3001 35.25 19.8001 35.5834 20.8001 35.5834H27.1335C29.1335 35.5834 31.3001 34.0834 31.8001 32.0834L35.8001 19.9167C36.6335 17.5834 35.1335 15.5834 32.6335 15.5834H25.9668C24.9668 15.5834 24.1335 14.75 24.3001 13.5834L25.1335 8.25003C25.4668 6.75003 24.4668 5.08336 22.9668 4.58336C21.6335 4.08336 19.9668 4.75003 19.3001 5.75003L12.4668 15.9167" stroke="#3F64AB" stroke-width="2.5" stroke-miterlimit="10"/>
<path d="M3.96631 30.5834V14.25C3.96631 11.9167 4.96631 11.0834 7.29964 11.0834H8.96631C11.2996 11.0834 12.2996 11.9167 12.2996 14.25V30.5834C12.2996 32.9167 11.2996 33.75 8.96631 33.75H7.29964C4.96631 33.75 3.96631 32.9167 3.96631 30.5834Z" stroke="#3F64AB" stroke-width="2.5" stroke-linecap="round" stroke-linejoin="round"/>
</svg>
