<?xml version="1.0" encoding="utf-8"?>
<!-- Generator: Adobe Illustrator 23.0.2, SVG Export Plug-In . SVG Version: 6.00 Build 0)  -->
<svg version="1.1" id="Layer_1" xmlns="http://www.w3.org/2000/svg" xmlns:xlink="http://www.w3.org/1999/xlink" x="0px" y="0px"
	 viewBox="0 0 1000 999" style="enable-background:new 0 0 1000 999;" xml:space="preserve">
<style type="text/css">
	.st0{fill:#3B96D2;}
	.st1{fill:#4379BB;}
	.st2{fill:url(#SVGID_1_);}
	.st3{fill:url(#SVGID_2_);}
	.st4{fill:url(#SVGID_3_);}
	.st5{fill:url(#SVGID_4_);}
	.st6{fill:url(#SVGID_5_);}
	.st7{fill:url(#SVGID_6_);}
	.st8{fill:url(#SVGID_7_);}
	.st9{fill:url(#SVGID_8_);}
	.st10{fill:url(#SVGID_9_);}
	.st11{fill:url(#SVGID_10_);}
	.st12{fill:url(#SVGID_11_);}
	.st13{fill:url(#SVGID_12_);}
	.st14{fill:url(#SVGID_13_);}
	.st15{opacity:0.41;fill:#4FBFDD;}
</style>
<g>
	<path class="st0" d="M202.03,756.73v7.51h-29.82c-2.71,0-5.06-0.17-7.04-0.53c-1.98-0.35-3.73-1.27-5.24-2.75
		c-1.52-1.48-2.27-3.79-2.27-6.92c0-1.4,0.15-2.91,0.45-4.52c0.3-1.61,0.65-3.01,1.03-4.19l6.7,0.38c0.03-0.35-0.08,0.62-0.33,2.92
		c-0.22,1.88-0.34,3.05-0.34,3.49c0,1.12,0.41,2.16,1.22,3.14c0.81,0.97,2.34,1.46,4.57,1.46h15.6v-16.42h8.23v16.42H202.03z
		 M173.07,768.07h7.42v7.71h-7.42V768.07z"/>
	<path class="st0" d="M217.39,740.31v23.93h-15.37v-7.51h7.13v-16.42H217.39z M206.48,768.07h5.79v7.28h-5.79V768.07z
		 M214.61,768.07h5.79v7.28h-5.79V768.07z"/>
	<path class="st0" d="M222.32,775.92v-7.42l0.72,0.05c1.72,0,2.58-1.31,2.58-3.92v-24.36h8.23v23.17c0,3.89-0.67,6.97-2.01,9.24
		c-1.34,2.26-3.37,3.4-6.08,3.4C225.06,776.06,223.92,776.02,222.32,775.92z"/>
	<path class="st0" d="M267.03,756.73v7.51h-28.77v-7.51h15.22c-0.1-3.48-0.83-6-2.2-7.56c-1.37-1.56-3-2.34-4.88-2.34h-5.5
		l-0.62-6.56c3.61-0.73,6.35-1.1,8.23-1.1c2.78,0,5.15,0.7,7.13,2.11c1.98,1.4,3.49,3.42,4.52,6.03c1.04,2.62,1.56,5.71,1.56,9.29
		v0.14H267.03z"/>
	<path class="st0" d="M289.62,756.73v7.51h-22.59v-7.51h7.13v-16.42h8.23v16.42H289.62z M271.19,728.58h5.79v7.28h-5.79V728.58z
		 M279.33,728.58h5.79v7.28h-5.79V728.58z"/>
	<path class="st0" d="M307.95,756.73v7.51h-18.43v-7.51h5.89v-25.42h8.23v25.42H307.95z"/>
	<path class="st0" d="M322.07,731.31v32.93h-14.12v-7.51h5.89v-25.42H322.07z"/>
	<path class="st0" d="M369.41,756.73v7.51h-17.57c-3.42,0-6.08-0.29-7.99-0.86s-3.37-1.76-4.36-3.57c-0.99-1.8-1.48-4.52-1.48-8.16
		c0-3.38,0.46-5.91,1.39-7.59c0.93-1.67,2.39-2.8,4.4-3.37c2.01-0.58,4.93-0.86,8.76-0.86c2.14,0,4.48,0.07,7.04,0.22
		c2.55,0.14,4.26,0.29,5.12,0.46v16.23H369.41z M345.57,728.58h5.79v7.28h-5.79V728.58z M346.89,755.08
		c0.43,0.72,1.03,1.17,1.79,1.36c0.77,0.19,1.87,0.29,3.3,0.29h4.5v-9.24c-2.01-0.1-3.35-0.14-4.02-0.14
		c-1.69,0-2.95,0.09-3.78,0.26c-0.83,0.18-1.44,0.57-1.84,1.2c-0.4,0.62-0.6,1.59-0.6,2.9
		C346.24,753.23,346.46,754.36,346.89,755.08z M353.71,728.58h5.79v7.28h-5.79V728.58z"/>
	<path class="st0" d="M392,756.73v7.51h-22.59v-7.51h7.13v-16.42h8.23v16.42H392z M373.62,768.07h5.79v7.28h-5.79V768.07z
		 M381.76,768.07h5.79v7.28h-5.79V768.07z"/>
	<path class="st0" d="M428.72,756.73v7.51h-3.35c-0.38,0-0.73-0.12-1.05-0.36c-0.32-0.24-0.56-0.57-0.72-0.98v1.34H392v-7.51h7.13
		c-0.42-1.79-0.62-3.3-0.62-4.55c0-1.5,0.22-3.24,0.65-5.22c0.43-1.98,0.9-3.73,1.41-5.27c0.89-0.45,2.27-0.85,4.12-1.22
		c1.85-0.37,3.96-0.55,6.32-0.55c3.8,0,6.61,0.53,8.42,1.58s2.97,2.41,3.45,4.07c0.48,1.66,0.72,3.89,0.72,6.7v2.54
		c0.19,0.57,0.45,1.04,0.79,1.39c0.34,0.35,0.66,0.53,0.98,0.53H428.72z M406.63,754.62c0.14,0.83,0.29,1.53,0.46,2.11h8.28v-4.64
		c0-1.12-0.07-1.98-0.22-2.58c-0.14-0.61-0.58-1.13-1.32-1.56c-0.73-0.43-1.9-0.65-3.49-0.65c-1.21,0-2.36,0.13-3.45,0.38
		c-0.32,1.75-0.48,3.25-0.48,4.5C406.41,752.98,406.48,753.79,406.63,754.62z"/>
	<path class="st0" d="M442.84,731.31v32.93h-14.12v-7.51h5.89v-25.42H442.84z"/>
	<path class="st0" d="M462.89,756.73v7.51h-13.07v-32.93h8.23v25.42H462.89z"/>
	<path class="st0" d="M496.45,756.73v7.51h-7.08c-3.25,0-6.41-0.65-9.48-1.96c-1.5,0.64-3.06,1.13-4.67,1.46s-3.12,0.5-4.52,0.5
		h-7.8v-7.51h7.66c0.64,0,1.12-0.02,1.44-0.05c-0.38-0.38-0.73-0.71-1.05-0.98c-0.32-0.27-0.61-0.52-0.86-0.74
		c-1.37-1.15-2.39-2.18-3.06-3.09c-0.67-0.91-0.99-2.04-0.96-3.38l-0.14-4.74c0.61-0.48,1.65-1.04,3.13-1.7
		c1.48-0.65,3.19-1.21,5.12-1.68c1.93-0.46,3.81-0.69,5.62-0.69c1.85,0,3.75,0.23,5.7,0.69c1.95,0.46,3.69,1.02,5.22,1.68
		c1.53,0.65,2.62,1.22,3.25,1.7l-0.24,4.74c0.03,0.93-0.13,1.76-0.48,2.49c-0.35,0.73-0.78,1.37-1.29,1.91
		c-0.51,0.54-1.23,1.21-2.15,2.01c-0.89,0.77-1.55,1.36-1.96,1.77c0.32,0.03,0.81,0.05,1.48,0.05H496.45z M484.34,750.53
		c0.92-1.04,1.45-1.86,1.58-2.46c-1.82-0.57-3.85-0.86-6.08-0.86c-2.2,0-4.13,0.27-5.79,0.81c0.16,0.7,0.71,1.6,1.65,2.7
		c0.94,1.1,2.35,2.16,4.24,3.18C481.94,752.69,483.41,751.56,484.34,750.53z M474.04,747.68l0.05-0.05
		C474.06,747.63,474.04,747.65,474.04,747.68z"/>
	<path class="st0" d="M510.57,731.31v32.93h-14.12v-7.51h5.89v-25.42H510.57z"/>
	<path class="st0" d="M517.55,731.31h8.23v32.93h-8.23V731.31z"/>
	<path class="st0" d="M573.94,756.73v7.51h-17.57c-3.42,0-6.08-0.29-7.99-0.86c-1.91-0.57-3.37-1.76-4.36-3.57
		c-0.99-1.8-1.48-4.52-1.48-8.16c0-3.38,0.46-5.91,1.39-7.59c0.92-1.67,2.39-2.8,4.4-3.37c2.01-0.58,4.93-0.86,8.76-0.86
		c2.14,0,4.48,0.07,7.04,0.22s4.26,0.29,5.12,0.46v16.23H573.94z M550.1,728.58h5.79v7.28h-5.79V728.58z M551.42,755.08
		c0.43,0.72,1.03,1.17,1.79,1.36c0.77,0.19,1.87,0.29,3.3,0.29h4.5v-9.24c-2.01-0.1-3.35-0.14-4.02-0.14
		c-1.69,0-2.95,0.09-3.78,0.26c-0.83,0.18-1.44,0.57-1.84,1.2c-0.4,0.62-0.6,1.59-0.6,2.9
		C550.77,753.23,550.99,754.36,551.42,755.08z M558.24,728.58h5.79v7.28h-5.79V728.58z"/>
	<path class="st0" d="M592.37,756.73v7.51h-18.43v-7.51h5.89v-25.42h8.23v25.42H592.37z"/>
	<path class="st0" d="M592.37,756.73h5.74c0.06,0.06,0-0.53-0.19-1.79s-0.29-2.58-0.29-3.95c0-2.78,0.53-4.93,1.58-6.46
		c1.05-1.53,2.61-2.6,4.67-3.21s4.75-0.91,8.07-0.91c3.06,0,5.34,0.1,6.84,0.29l3.25,0.38v23.17h-29.68V756.73z M613.81,756.73v-8.9
		c-1.34-0.06-2.19-0.1-2.54-0.1c-1.56,0-2.69,0.11-3.38,0.33c-0.69,0.22-1.17,0.69-1.44,1.41c-0.27,0.72-0.41,1.91-0.41,3.57
		c0,1.31,0.05,2.2,0.14,2.66c0.1,0.46,0.16,0.81,0.19,1.03H613.81z M606.63,728.15h7.42v7.71h-7.42V728.15z"/>
	<path class="st0" d="M641,756.73v7.51h-13.07v-32.93h8.23v25.42H641z"/>
	<path class="st0" d="M673.84,756.73v7.51H641v-7.51h5.74c0.06,0.06,0-0.53-0.19-1.79s-0.29-2.58-0.29-3.95
		c0-2.78,0.53-4.93,1.58-6.46c1.05-1.53,2.61-2.6,4.67-3.21s4.75-0.91,8.07-0.91c3.06,0,5.34,0.1,6.84,0.29l3.25,0.38v15.65H673.84z
		 M652.15,728.58h5.79v7.28h-5.79V728.58z M662.44,747.82c-1.34-0.06-2.19-0.1-2.54-0.1c-1.56,0-2.69,0.11-3.38,0.33
		c-0.69,0.22-1.17,0.69-1.44,1.41c-0.27,0.72-0.41,1.91-0.41,3.57c0,1.31,0.05,2.2,0.14,2.66c0.1,0.46,0.16,0.81,0.19,1.03h7.42
		V747.82z M660.29,728.58h5.79v7.28h-5.79V728.58z"/>
	<path class="st0" d="M687.96,731.31v32.93h-14.12v-7.51h5.89v-25.42H687.96z"/>
	<path class="st0" d="M694.94,731.31h8.23v32.93h-8.23V731.31z"/>
	<path class="st0" d="M748.7,756.73v7.51h-28.77v-7.51h15.22c-0.1-3.48-0.83-6-2.2-7.56c-1.37-1.56-3-2.34-4.88-2.34h-5.5
		l-0.62-6.56c3.61-0.73,6.35-1.1,8.23-1.1c2.78,0,5.15,0.7,7.13,2.11s3.49,3.42,4.52,6.03c1.04,2.62,1.56,5.71,1.56,9.29v0.14H748.7
		z"/>
	<path class="st0" d="M789.91,756.73v7.51H748.7v-7.51h4.74v-0.77c-0.03-1.75,0.41-3.47,1.32-5.15c0.91-1.67,2.19-3.04,3.83-4.09
		c1.64-1.05,3.53-1.58,5.67-1.58c2.14,0,4.01,0.54,5.62,1.6c1.61,1.07,2.86,2.43,3.73,4.07c0.88,1.64,1.32,3.33,1.32,5.05v0.86h2.78
		v-5.5c0-2.87-0.61-5.09-1.82-6.65c-1.21-1.56-2.63-2.62-4.24-3.16c-1.61-0.54-3.17-0.81-4.67-0.81c-1.15,0-2.5,0.1-4.04,0.31
		c-1.55,0.21-3.77,0.55-6.68,1.03c-0.26,0.06-0.61,0.13-1.05,0.19l-0.72-6.75c3.03-0.73,5.71-1.3,8.04-1.7
		c2.33-0.4,4.45-0.6,6.37-0.6c4.08,0,7.4,0.87,9.93,2.61c2.54,1.74,4.36,3.97,5.46,6.7c1.1,2.73,1.65,5.67,1.65,8.83v5.5H789.91z
		 M762.41,753.59c-0.46,0.65-0.69,1.46-0.69,2.42v0.72h4.98v-0.77c0-0.92-0.25-1.71-0.74-2.37c-0.5-0.65-1.09-0.98-1.79-0.98
		C763.46,752.61,762.87,752.94,762.41,753.59z"/>
	<path class="st0" d="M823.46,756.73v7.51h-7.08c-3.25,0-6.41-0.65-9.48-1.96c-1.5,0.64-3.06,1.13-4.67,1.46s-3.12,0.5-4.52,0.5
		h-7.8v-7.51h7.66c0.64,0,1.12-0.02,1.44-0.05c-0.38-0.38-0.73-0.71-1.05-0.98c-0.32-0.27-0.61-0.52-0.86-0.74
		c-1.37-1.15-2.39-2.18-3.06-3.09c-0.67-0.91-0.99-2.04-0.96-3.38l-0.14-4.74c0.61-0.48,1.65-1.04,3.13-1.7
		c1.48-0.65,3.19-1.21,5.12-1.68c1.93-0.46,3.81-0.69,5.62-0.69c1.85,0,3.75,0.23,5.7,0.69c1.95,0.46,3.69,1.02,5.22,1.68
		c1.53,0.65,2.62,1.22,3.25,1.7l-0.24,4.74c0.03,0.93-0.13,1.76-0.48,2.49c-0.35,0.73-0.78,1.37-1.29,1.91
		c-0.51,0.54-1.23,1.21-2.15,2.01c-0.89,0.77-1.55,1.36-1.96,1.77c0.32,0.03,0.81,0.05,1.48,0.05H823.46z M811.35,750.53
		c0.92-1.04,1.45-1.86,1.58-2.46c-1.82-0.57-3.85-0.86-6.08-0.86c-2.2,0-4.13,0.27-5.79,0.81c0.16,0.7,0.71,1.6,1.65,2.7
		c0.94,1.1,2.35,2.16,4.24,3.18C808.96,752.69,810.43,751.56,811.35,750.53z M801.06,747.68l0.05-0.05
		C801.08,747.63,801.06,747.65,801.06,747.68z"/>
	<path class="st0" d="M850.89,741.5c1.82,1.05,2.97,2.41,3.45,4.07c0.48,1.66,0.72,3.89,0.72,6.7v11.97h-31.59v-7.51h7.13
		c-0.42-1.79-0.62-3.3-0.62-4.55c0-1.5,0.22-3.24,0.65-5.22s0.9-3.73,1.41-5.27c0.89-0.45,2.26-0.85,4.12-1.22
		c1.85-0.37,3.96-0.55,6.32-0.55C846.26,739.92,849.07,740.45,850.89,741.5z M838.09,754.62c0.14,0.83,0.29,1.53,0.46,2.11h8.28
		v-4.64c0-1.12-0.07-1.98-0.21-2.58c-0.14-0.61-0.58-1.13-1.32-1.56c-0.73-0.43-1.9-0.65-3.49-0.65c-1.21,0-2.36,0.13-3.45,0.38
		c-0.32,1.75-0.48,3.25-0.48,4.5C837.87,752.98,837.94,753.79,838.09,754.62z"/>
	<path class="st1" d="M65.2,834.05c-2.07,0-3.97-0.33-5.7-0.98c-1.72-0.65-3.22-1.57-4.5-2.75c-1.28-1.18-2.27-2.59-2.97-4.24
		c-0.7-1.64-1.05-3.45-1.05-5.43v-17.71h8.42v17.09c0,1.82,0.56,3.27,1.68,4.36c1.12,1.08,2.54,1.63,4.26,1.63h6.61
		c1.72,0,3.14-0.54,4.26-1.63c1.12-1.08,1.68-2.54,1.68-4.36v-17.09h8.42v17.71c0,1.98-0.35,3.79-1.05,5.43
		c-0.7,1.64-1.69,3.06-2.97,4.24c-1.28,1.18-2.78,2.1-4.52,2.75c-1.74,0.65-3.63,0.98-5.67,0.98H65.2z"/>
	<path class="st1" d="M111.2,834.05V821.5c0-2.71-1.39-4.07-4.16-4.07h-7.99v16.61H91v-23.89h16.23c3.96,0,6.94,0.99,8.95,2.97
		c2.01,1.98,3.02,4.79,3.02,8.42v12.49H111.2z"/>
	<path class="st1" d="M127.09,807.82c-1.05,0-1.92-0.31-2.61-0.93c-0.69-0.62-1.03-1.48-1.03-2.56c0-1.02,0.34-1.84,1.03-2.47
		c0.69-0.62,1.56-0.93,2.61-0.93h1.1c1.05,0,1.92,0.31,2.58,0.93c0.67,0.62,1.01,1.44,1.01,2.47c0,1.08-0.34,1.94-1.01,2.56
		s-1.53,0.93-2.58,0.93H127.09z M123.6,834.05v-23.89h7.99v23.89H123.6z"/>
	<path class="st1" d="M148.34,834.05c-1.18,0-2.09-0.59-2.73-1.77l-11.2-22.11h8.14l7.18,14.79l7.13-14.79h8.19l-11.3,22.11
		c-0.61,1.18-1.48,1.77-2.63,1.77H148.34z"/>
	<path class="st1" d="M179.69,834.05c-1.85,0-3.56-0.29-5.12-0.86c-1.56-0.57-2.92-1.39-4.07-2.44s-2.04-2.31-2.68-3.78
		c-0.64-1.47-0.96-3.09-0.96-4.88c0-1.75,0.32-3.37,0.96-4.83c0.64-1.47,1.53-2.73,2.68-3.78c1.15-1.05,2.5-1.87,4.07-2.44
		c1.56-0.57,3.27-0.86,5.12-0.86h6.08c1.37,0,2.57,0.19,3.59,0.58c1.02,0.38,1.87,0.91,2.56,1.58c0.69,0.67,1.2,1.48,1.53,2.42
		c0.33,0.94,0.5,1.97,0.5,3.09c0,2.11-0.61,3.69-1.82,4.74c-1.21,1.05-3.21,1.58-5.98,1.58h-8.52v-4.36h6.84
		c1.24,0,1.87-0.56,1.87-1.68c0-1.18-0.61-1.77-1.82-1.77h-4.88c-1.44,0-2.6,0.5-3.49,1.48c-0.89,0.99-1.34,2.39-1.34,4.21
		c0,1.82,0.45,3.18,1.34,4.09c0.89,0.91,2.06,1.36,3.49,1.36h13.02v6.56H179.69z"/>
	<path class="st1" d="M197.45,834.05v-12.49c0-3.64,1.01-6.45,3.02-8.42c2.01-1.98,4.98-2.97,8.9-2.97h6.7v7.28h-6.51
		c-2.74,0-4.12,1.36-4.12,4.07v12.54H197.45z"/>
	<path class="st1" d="M218.18,834.05v-6.56h16.85c1.12,0,1.68-0.51,1.68-1.53c0-0.99-0.56-1.48-1.68-1.48h-9.38
		c-1.21,0-2.3-0.18-3.25-0.55c-0.96-0.37-1.77-0.87-2.44-1.51c-0.67-0.64-1.18-1.4-1.53-2.27c-0.35-0.88-0.53-1.83-0.53-2.85
		c0-1.08,0.19-2.07,0.57-2.94c0.38-0.88,0.93-1.63,1.63-2.25c0.7-0.62,1.52-1.1,2.44-1.44c0.92-0.33,1.95-0.5,3.06-0.5h17.57v6.56
		h-16.08c-1.08,0-1.63,0.5-1.63,1.48c0,0.99,0.54,1.48,1.63,1.48h9.57c2.46,0,4.36,0.67,5.7,2.01c1.34,1.34,2.01,3.05,2.01,5.12
		c0,1.12-0.19,2.11-0.57,2.99c-0.38,0.88-0.92,1.64-1.6,2.27c-0.69,0.64-1.5,1.13-2.44,1.46c-0.94,0.33-1.97,0.5-3.09,0.5H218.18z"
		/>
	<path class="st1" d="M254.75,834.05c-2.52,0-4.4-0.65-5.65-1.96c-1.24-1.31-1.87-3-1.87-5.07c0-2.11,0.62-3.81,1.87-5.12
		c1.24-1.31,3.13-1.96,5.65-1.96h8.9v4.64h-7.08c-1.18,0-1.77,0.56-1.77,1.68s0.56,1.67,1.68,1.67H266v-6.89
		c0-2.71-1.39-4.07-4.16-4.07h-13.31v-6.8h13.4c3.99,0,6.97,0.98,8.95,2.94c1.98,1.96,2.97,4.78,2.97,8.45v12.49H254.75z"/>
	<path class="st1" d="M278.54,834.05v-33.55h7.99v33.55H278.54z"/>
	<path class="st1" d="M319.89,834.05c-2.39,0-4.59-0.38-6.61-1.13c-2.01-0.75-3.74-1.8-5.19-3.16c-1.45-1.36-2.59-2.99-3.42-4.91
		c-0.83-1.92-1.24-4.04-1.24-6.37c0-2.33,0.41-4.44,1.24-6.34c0.83-1.9,1.97-3.53,3.42-4.91c1.45-1.37,3.18-2.43,5.19-3.18
		c2.01-0.75,4.21-1.13,6.61-1.13h15.22v7.99h-15.8c-1.08,0-2.09,0.18-3.02,0.55c-0.93,0.37-1.72,0.89-2.39,1.56
		c-0.67,0.67-1.2,1.47-1.58,2.39c-0.38,0.93-0.57,1.95-0.57,3.06c0,1.12,0.19,2.14,0.57,3.06c0.38,0.93,0.91,1.72,1.58,2.37
		c0.67,0.65,1.47,1.17,2.39,1.53c0.93,0.37,1.93,0.55,3.02,0.55h15.8v8.04H319.89z"/>
	<path class="st1" d="M346.46,834.05c-2.52,0-4.4-0.65-5.65-1.96c-1.24-1.31-1.87-3-1.87-5.07c0-2.11,0.62-3.81,1.87-5.12
		c1.24-1.31,3.13-1.96,5.65-1.96h8.9v4.64h-7.08c-1.18,0-1.77,0.56-1.77,1.68s0.56,1.67,1.68,1.67h9.53v-6.89
		c0-2.71-1.39-4.07-4.16-4.07h-13.31v-6.8h13.4c3.99,0,6.97,0.98,8.95,2.94c1.98,1.96,2.97,4.78,2.97,8.45v12.49H346.46z"/>
	<path class="st1" d="M370.01,834.05v-12.49c0-3.64,1.01-6.45,3.02-8.42c2.01-1.98,4.98-2.97,8.9-2.97h6.7v7.28h-6.51
		c-2.74,0-4.12,1.36-4.12,4.07v12.54H370.01z"/>
	<path class="st1" d="M398.63,834.05c-2.52,0-4.4-0.65-5.65-1.96c-1.24-1.31-1.87-3-1.87-5.07c0-2.11,0.62-3.81,1.87-5.12
		c1.24-1.31,3.13-1.96,5.65-1.96h8.9v4.64h-7.08c-1.18,0-1.77,0.56-1.77,1.68s0.56,1.67,1.68,1.67h9.53v-6.89
		c0-2.71-1.39-4.07-4.16-4.07h-13.31v-6.8h13.4c3.99,0,6.97,0.98,8.95,2.94c1.98,1.96,2.97,4.78,2.97,8.45v12.49H398.63z"/>
	<path class="st1" d="M434.44,834.05c-1.18,0-2.09-0.59-2.73-1.77l-11.2-22.11h8.14l7.18,14.79l7.13-14.79h8.19l-11.3,22.11
		c-0.61,1.18-1.48,1.77-2.63,1.77H434.44z"/>
	<path class="st1" d="M460.86,834.05c-2.52,0-4.4-0.65-5.65-1.96c-1.24-1.31-1.87-3-1.87-5.07c0-2.11,0.62-3.81,1.87-5.12
		c1.24-1.31,3.13-1.96,5.65-1.96h8.9v4.64h-7.08c-1.18,0-1.77,0.56-1.77,1.68s0.56,1.67,1.67,1.67h9.53v-6.89
		c0-2.71-1.39-4.07-4.16-4.07h-13.31v-6.8h13.4c3.99,0,6.97,0.98,8.95,2.94s2.97,4.78,2.97,8.45v12.49H460.86z"/>
	<path class="st1" d="M504.85,834.05V821.5c0-2.71-1.39-4.07-4.16-4.07h-7.99v16.61h-8.04v-23.89h16.23c3.96,0,6.94,0.99,8.95,2.97
		c2.01,1.98,3.02,4.79,3.02,8.42v12.49H504.85z"/>
	<path class="st1" d="M540.17,834.05v-23.12h-11.44v-7.99h31.26v7.99h-11.44v23.12H540.17z"/>
	<path class="st1" d="M563.05,834.05v-12.49c0-3.64,1-6.45,3.02-8.42c2.01-1.98,4.98-2.97,8.9-2.97h6.7v7.28h-6.51
		c-2.74,0-4.12,1.36-4.12,4.07v12.54H563.05z"/>
	<path class="st1" d="M591.68,834.05c-2.52,0-4.4-0.65-5.65-1.96c-1.24-1.31-1.87-3-1.87-5.07c0-2.11,0.62-3.81,1.87-5.12
		c1.25-1.31,3.13-1.96,5.65-1.96h8.9v4.64h-7.08c-1.18,0-1.77,0.56-1.77,1.68s0.56,1.67,1.67,1.67h9.53v-6.89
		c0-2.71-1.39-4.07-4.16-4.07h-13.31v-6.8h13.4c3.99,0,6.97,0.98,8.95,2.94s2.97,4.78,2.97,8.45v12.49H591.68z"/>
	<path class="st1" d="M618.96,807.82c-1.05,0-1.92-0.31-2.61-0.93c-0.69-0.62-1.03-1.48-1.03-2.56c0-1.02,0.34-1.84,1.03-2.47
		c0.69-0.62,1.56-0.93,2.61-0.93h1.1c1.05,0,1.92,0.31,2.58,0.93c0.67,0.62,1,1.44,1,2.47c0,1.08-0.33,1.94-1,2.56
		s-1.53,0.93-2.58,0.93H618.96z M615.47,834.05v-23.89h7.99v23.89H615.47z"/>
	<path class="st1" d="M648.4,834.05V821.5c0-2.71-1.39-4.07-4.16-4.07h-7.99v16.61h-8.04v-23.89h16.23c3.96,0,6.94,0.99,8.95,2.97
		c2.01,1.98,3.02,4.79,3.02,8.42v12.49H648.4z"/>
	<path class="st1" d="M664.29,807.82c-1.05,0-1.92-0.31-2.61-0.93c-0.69-0.62-1.03-1.48-1.03-2.56c0-1.02,0.34-1.84,1.03-2.47
		c0.69-0.62,1.56-0.93,2.61-0.93h1.1c1.05,0,1.92,0.31,2.58,0.93c0.67,0.62,1,1.44,1,2.47c0,1.08-0.33,1.94-1,2.56
		s-1.53,0.93-2.58,0.93H664.29z M660.79,834.05v-23.89h7.99v23.89H660.79z"/>
	<path class="st1" d="M693.73,834.05V821.5c0-2.71-1.39-4.07-4.16-4.07h-7.99v16.61h-8.04v-23.89h16.23c3.96,0,6.94,0.99,8.95,2.97
		c2.01,1.98,3.02,4.79,3.02,8.42v12.49H693.73z"/>
	<path class="st1" d="M715.46,842.38v-7.28h6.03c1.75,0,2.97-0.38,3.66-1.13c0.69-0.75,1.03-1.89,1.03-3.42v-9.67
		c0-2.27-1.36-3.4-4.07-3.4h-4.07c-1.44,0-2.61,0.31-3.52,0.93c-0.91,0.62-1.36,1.64-1.36,3.04c0,1.44,0.49,2.43,1.48,2.97
		c0.99,0.54,2.39,0.81,4.21,0.81c0.73,0,1.53-0.03,2.39-0.1c0.86-0.06,1.72-0.17,2.58-0.33v6.51c-0.89,0.22-1.85,0.4-2.87,0.53
		c-1.02,0.13-2.06,0.19-3.11,0.19c-4.15,0-7.3-0.96-9.45-2.9s-3.23-4.52-3.23-7.78c0-1.79,0.33-3.38,0.98-4.76s1.56-2.56,2.73-3.52
		c1.17-0.96,2.57-1.68,4.21-2.18c1.64-0.49,3.47-0.74,5.48-0.74h4.36c3.57,0,6.34,0.98,8.3,2.94c1.96,1.96,2.94,4.78,2.94,8.45v9.05
		c0,3.99-1.01,6.95-3.02,8.88c-2.01,1.93-5.25,2.9-9.72,2.9H715.46z"/>
	<path class="st1" d="M751.79,834.05v-31.11h8.38v31.11H751.79z"/>
	<path class="st1" d="M785.34,834.05V821.5c0-2.71-1.39-4.07-4.16-4.07h-7.99v16.61h-8.04v-23.89h16.23c3.96,0,6.94,0.99,8.95,2.97
		c2.01,1.98,3.02,4.79,3.02,8.42v12.49H785.34z"/>
	<path class="st1" d="M796.78,834.05v-6.56h16.85c1.12,0,1.67-0.51,1.67-1.53c0-0.99-0.56-1.48-1.67-1.48h-9.38
		c-1.21,0-2.3-0.18-3.25-0.55c-0.96-0.37-1.77-0.87-2.44-1.51c-0.67-0.64-1.18-1.4-1.53-2.27c-0.35-0.88-0.53-1.83-0.53-2.85
		c0-1.08,0.19-2.07,0.58-2.94c0.38-0.88,0.92-1.63,1.63-2.25c0.7-0.62,1.52-1.1,2.44-1.44c0.92-0.33,1.95-0.5,3.06-0.5h17.57v6.56
		h-16.08c-1.08,0-1.63,0.5-1.63,1.48c0,0.99,0.54,1.48,1.63,1.48h9.57c2.46,0,4.36,0.67,5.7,2.01c1.34,1.34,2.01,3.05,2.01,5.12
		c0,1.12-0.19,2.11-0.57,2.99c-0.38,0.88-0.92,1.64-1.6,2.27c-0.69,0.64-1.5,1.13-2.44,1.46c-0.94,0.33-1.97,0.5-3.09,0.5H796.78z"
		/>
	<path class="st1" d="M834.88,834.05c-2.9,0-5.08-0.76-6.53-2.27c-1.45-1.52-2.18-3.68-2.18-6.49v-21.92h7.95v6.8h9.57v6.61h-9.57
		v7.9c0,1.88,0.94,2.82,2.82,2.82h6.51v6.56H834.88z"/>
	<path class="st1" d="M851.3,807.82c-1.05,0-1.92-0.31-2.61-0.93c-0.69-0.62-1.03-1.48-1.03-2.56c0-1.02,0.34-1.84,1.03-2.47
		c0.69-0.62,1.56-0.93,2.61-0.93h1.1c1.05,0,1.92,0.31,2.58,0.93c0.67,0.62,1,1.44,1,2.47c0,1.08-0.33,1.94-1,2.56
		s-1.53,0.93-2.58,0.93H851.3z M847.81,834.05v-23.89h7.99v23.89H847.81z"/>
	<path class="st1" d="M869.01,834.05c-2.9,0-5.08-0.76-6.53-2.27c-1.45-1.52-2.18-3.68-2.18-6.49v-21.92h7.95v6.8h9.57v6.61h-9.57
		v7.9c0,1.88,0.94,2.82,2.82,2.82h6.51v6.56H869.01z"/>
	<path class="st1" d="M893.66,834.05c-3.99,0-6.98-0.98-8.97-2.94c-1.99-1.96-2.99-4.78-2.99-8.45v-12.49h7.99v12.49
		c0,2.75,1.39,4.12,4.16,4.12h4.21c2.78,0,4.16-1.37,4.16-4.12v-12.49h7.99v12.49c0,3.67-1,6.49-2.99,8.45
		c-1.99,1.96-4.99,2.94-8.97,2.94H893.66z"/>
	<path class="st1" d="M923.15,834.05c-2.9,0-5.08-0.76-6.53-2.27c-1.45-1.52-2.18-3.68-2.18-6.49v-21.92h7.95v6.8h9.57v6.61h-9.57
		v7.9c0,1.88,0.94,2.82,2.82,2.82h6.51v6.56H923.15z"/>
	<path class="st1" d="M947.94,834.05c-1.85,0-3.56-0.29-5.12-0.86c-1.56-0.57-2.92-1.39-4.07-2.44c-1.15-1.05-2.04-2.31-2.68-3.78
		c-0.64-1.47-0.96-3.09-0.96-4.88c0-1.75,0.32-3.37,0.96-4.83c0.64-1.47,1.53-2.73,2.68-3.78c1.15-1.05,2.5-1.87,4.07-2.44
		c1.56-0.57,3.27-0.86,5.12-0.86h6.08c1.37,0,2.57,0.19,3.59,0.58c1.02,0.38,1.87,0.91,2.56,1.58c0.69,0.67,1.2,1.48,1.53,2.42
		c0.33,0.94,0.5,1.97,0.5,3.09c0,2.11-0.61,3.69-1.82,4.74c-1.21,1.05-3.21,1.58-5.98,1.58h-8.52v-4.36h6.84
		c1.24,0,1.87-0.56,1.87-1.68c0-1.18-0.61-1.77-1.82-1.77h-4.88c-1.44,0-2.6,0.5-3.49,1.48s-1.34,2.39-1.34,4.21
		c0,1.82,0.45,3.18,1.34,4.09s2.06,1.36,3.49,1.36h13.02v6.56H947.94z"/>
</g>
<g>
	<g>
		<linearGradient id="SVGID_1_" gradientUnits="userSpaceOnUse" x1="501.4514" y1="286.7983" x2="497.7585" y2="483.753">
			<stop  offset="0" style="stop-color:#4CC1EF"/>
			<stop  offset="1" style="stop-color:#4064AC"/>
		</linearGradient>
		<path class="st2" d="M735.59,406.62c-1.89,9.7-3.3,19.51-6.11,28.97c-3.93,15.37-9.55,30.22-16.45,44.36
			c-7.04,15.07-15.73,29.29-25.75,42.36c-19.24,25.91-43.49,47.69-70.8,63.7c-4.08,2.34-7.99,5.06-12.32,6.89
			c-18.12,9.14-37.27,16.04-56.98,20.21c-3.89,0.66-7.68,1.77-11.51,2.64c1.51-3.33,4.96-4.77,7.5-7.06
			c4.66-3.42,8.68-7.68,13.26-11.21c7.35-6.41,13.94-13.7,20.72-20.76c5.3-5.47,9.83-11.66,14.77-17.48
			c28.44-35.53,48.19-78.41,58.51-123.48c2.2-8.43,3.15-17.12,4.46-25.73c-6.16,1.43-12.41,2.37-18.49,4.1
			c-2.07,14.46-5.44,28.76-10.08,42.56c-3.24,9.16-6.19,18.46-10.16,27.33c-3.37,7.37-6.67,14.79-10.65,21.82
			c-7.3,14.37-16.55,27.5-25.92,40.42c-2.83,3.68-6,7.04-8.74,10.8c-11.28,13.63-24.4,25.42-37.84,36.6
			c-9.69,7.61-19.68,14.86-30.17,21.2c-1.41,0.8-2.86,1.87-4.55,1.6c-10.16-6.92-20.53-13.55-30.12-21.33
			c-17.23-13.51-33.06-29.07-46.42-46.78c-29.39-36.58-49.42-81.26-58.05-128.22c-0.53-2-0.46-4.31-1.59-6.04
			c-5.76-2.41-12.24-2.09-18.09-4.35c4.35,28.68,11.94,56.98,23.71,83.31c10.03,23.71,23.58,45.65,39.13,65.76
			c9.42,11.74,19.23,23.24,30.34,33.26c4.86,4.71,9.77,9.39,14.99,13.69c4.08,3.59,9.24,6.04,12.04,11.02
			c-1.67-0.9-3.27-2.03-5.17-2.26c-13.19-2.71-26.36-5.77-38.98-10.64c-27.67-10.35-53.54-26.01-75.82-46.11
			c-22.52-20.4-41.55-45.09-55.59-72.64c-8.98-16.84-15.11-35.16-20.07-53.69c-3.04-12.31-5.26-24.86-6.4-37.52
			c-5.88-1.75-11.93-2.88-18.04-3.06c0.32,8.72,1.59,17.38,3.23,25.92c3.94,22.17,10.58,43.79,19.64,64.25
			c14.15,31.89,34.58,60.59,59.01,84.61c9.98,9.28,20.48,17.97,31.52,25.83c28.13,19.74,60.08,33.43,93.28,40.15
			c0.03,0,0.04,0.01,0.06,0.01c0.04,0.01,0.1,0.03,0.18,0.05c0.05,0.01,0.1,0.03,0.17,0.04c0.01,0,0.03,0,0.04,0.01
			c0.49,0.12,1.29,0.3,2.08,0.46c0.5,0.1,1,0.21,1.38,0.27c20.02,3.16,40.35,5.14,60.58,3.25c42.5-2.13,84.15-16.66,120.22-40.19
			c25.99-17.29,49.26-39.17,67.94-64.87c18.16-25.32,32.72-53.73,41.24-84.21c5.39-18.08,9.1-36.78,10.12-55.74
			c-6.05,0.62-12.11,1.39-18,3.08C736.52,398.09,736.38,402.4,735.59,406.62z"/>
		<linearGradient id="SVGID_2_" gradientUnits="userSpaceOnUse" x1="326.3048" y1="282.9259" x2="322.606" y2="480.2001">
			<stop  offset="0" style="stop-color:#4CC1EF"/>
			<stop  offset="1" style="stop-color:#4064AC"/>
		</linearGradient>
		<path class="st3" d="M266.34,394.29c2.63,13.27,3.86,26.93,8.22,39.77c22.28,32.88,50.94,60.99,83.85,81.85
			c6.95,4.34,14.18,8.17,21.17,12.43c-0.87-2.2-1.65-4.44-2.81-6.49c-4.07-6.62-7.63-13.57-10.83-20.7
			c-1.82-4.1-5.85-6.12-9.22-8.54c-27.66-20.47-52.41-45.36-72.47-74.01c-4.8-6.9-9.89-13.66-13.61-21.29
			C269.85,395.5,268.08,394.71,266.34,394.29z"/>
		<linearGradient id="SVGID_3_" gradientUnits="userSpaceOnUse" x1="679.2328" y1="290.0974" x2="675.5393" y2="487.0873">
			<stop  offset="0" style="stop-color:#4CC1EF"/>
			<stop  offset="1" style="stop-color:#4064AC"/>
		</linearGradient>
		<path class="st4" d="M633.85,499.98c-4.02,7.67-7.38,15.73-12.01,23.04c-0.94,1.42-1.54,3.02-1.9,4.7
			c3.46-1.21,6.25-3.82,9.57-5.38c24.42-13.62,46.75-31.28,66.09-52.02c8.46-9.37,16.93-18.81,24.07-29.35
			c2.42-3.38,5.38-6.6,6.29-10.86c2.73-11.79,5.3-23.69,6.15-35.81c-1.19,0.63-2.68,1.02-3.3,2.39c-2.08,4.1-4.3,8.13-6.96,11.85
			c-4.03,5.35-7.37,11.24-11.61,16.42c-10.15,14.3-21.94,27.21-34.32,39.4c-10.52,10.2-21.63,19.75-33.45,28.24
			C639.64,495.09,635.69,496.36,633.85,499.98z"/>
		<linearGradient id="SVGID_4_" gradientUnits="userSpaceOnUse" x1="504.2517" y1="287.1197" x2="500.5635" y2="483.8273">
			<stop  offset="0" style="stop-color:#4CC1EF"/>
			<stop  offset="1" style="stop-color:#4064AC"/>
		</linearGradient>
		<path class="st5" d="M495.41,538.44c-29.76-0.38-59.26-6.88-87.23-17.36c2.25,4.39,5.41,8.19,7.95,12.4
			c3.54,4.33,6.43,9.38,10.65,13.01c23.57,7.33,48.28,10.14,72.82,10.33c15.81-0.39,31.7-1.16,47.26-4.31
			c8.91-1.86,18.03-3.15,26.57-6.53c2.93-3.33,5.63-6.91,8.1-10.64c3.21-5.09,7.24-9.6,10.02-15
			C561.06,532.87,528.16,539.06,495.41,538.44z"/>
		<linearGradient id="SVGID_5_" gradientUnits="userSpaceOnUse" x1="500.0735" y1="286.4588" x2="496.3779" y2="483.5578">
			<stop  offset="0" style="stop-color:#4CC1EF"/>
			<stop  offset="1" style="stop-color:#4064AC"/>
		</linearGradient>
		<path class="st6" d="M512.55,309.97l-6.5-36.02l-6.41-35.44l-6.41,35.44l-6.5,36.02c4.27-0.65,8.59-1.11,12.91-1.12
			C503.96,308.86,508.28,309.33,512.55,309.97z"/>
		<linearGradient id="SVGID_6_" gradientUnits="userSpaceOnUse" x1="501.5051" y1="286.5428" x2="497.812" y2="483.5092">
			<stop  offset="0" style="stop-color:#4CC1EF"/>
			<stop  offset="1" style="stop-color:#4064AC"/>
		</linearGradient>
		<path class="st7" d="M481.17,351.83c-12.35,6.62-18.35,20.27-20.22,34.08c25.87-19.16,52.03-20.75,77.38,1.01
			C537.74,357.62,505.84,336.17,481.17,351.83z"/>
		<linearGradient id="SVGID_7_" gradientUnits="userSpaceOnUse" x1="501.511" y1="286.4949" x2="497.8149" y2="483.6196">
			<stop  offset="0" style="stop-color:#4CC1EF"/>
			<stop  offset="1" style="stop-color:#4064AC"/>
		</linearGradient>
		<path class="st8" d="M494.91,314.14c-99.4,12.05-75.68,165.05,22.05,142.96C597.35,434.17,578.06,309.48,494.91,314.14z
			 M530.7,425.56c-68.12,50.13-118.75-70.01-37.46-88.94C540.12,329.81,567.27,393.57,530.7,425.56z"/>
		<linearGradient id="SVGID_8_" gradientUnits="userSpaceOnUse" x1="324.0626" y1="283.0892" x2="320.3658" y2="480.2478">
			<stop  offset="0" style="stop-color:#4CC1EF"/>
			<stop  offset="1" style="stop-color:#4064AC"/>
		</linearGradient>
		<path class="st9" d="M425.85,377.23c-24.23-0.05-190.11-0.7-215.89,0.15c0.09,0.9-0.07-0.55,0,0.36
			c8.11,1.68,217.24,43.39,223.83,45.53C427.11,409.12,424.09,392.94,425.85,377.23z"/>
		<linearGradient id="SVGID_9_" gradientUnits="userSpaceOnUse" x1="679.4629" y1="290.3922" x2="675.7805" y2="486.7853">
			<stop  offset="0" style="stop-color:#4CC1EF"/>
			<stop  offset="1" style="stop-color:#4064AC"/>
		</linearGradient>
		<path class="st10" d="M789.31,377.37c-25.78-0.85-191.66-0.2-215.89-0.15c1.76,15.71-1.26,31.9-7.94,46.04
			c6.59-2.14,215.72-43.86,223.83-45.53C789.37,376.83,789.22,378.28,789.31,377.37z"/>
	</g>
	<linearGradient id="SVGID_10_" gradientUnits="userSpaceOnUse" x1="499.8721" y1="7.4171" x2="499.8721" y2="583.6122">
		<stop  offset="0" style="stop-color:#4CC1EF"/>
		<stop  offset="1" style="stop-color:#4064AC"/>
	</linearGradient>
	<path class="st11" d="M583.48,230.1c-3.01-4.06-5.72-8.39-9.09-12.14c-2.07-2.46-5.43-2.57-8.24-3.42
		c-30.98-7.95-63.25-10.71-94.99-7.02c-14.21,1.25-28.07,4.91-42.01,7.9c-3.02,0.36-4.91,3.05-6.61,5.4
		c-3.02,4.33-6.13,8.6-9.14,12.93c-1.83,2.64-4.47,4.84-5.07,8.21c5.63-1.54,10.98-4.04,16.58-5.71
		c36.29-11.64,75.11-14.89,112.64-8.71c18.42,2.82,36.49,8.06,53.89,14.95C589.31,238.01,586.14,234.22,583.48,230.1z"/>
	<linearGradient id="SVGID_11_" gradientUnits="userSpaceOnUse" x1="323.1295" y1="7.4171" x2="323.1295" y2="583.6122">
		<stop  offset="0" style="stop-color:#4CC1EF"/>
		<stop  offset="1" style="stop-color:#4064AC"/>
	</linearGradient>
	<path class="st12" d="M365.48,262.32c2.64-5.52,5.65-10.82,8.34-16.31c1.77-3.64,4.57-6.66,6.01-10.48
		c-3.4,0.74-6.29,2.85-9.33,4.48c-22.9,12.49-43.72,28.88-62.38,47.55c-0.01,0.01-0.01,0.01-0.02,0.01
		c-5.1,4.53-10.27,11.24-10.27,11.24v0.03c-0.34,0.39-0.69,0.77-1.03,1.16c-6.12,7.08-11.98,14.41-17.42,22.09
		c-2.08,3.1-4.79,5.87-5.86,9.61c-2.28,7.51-3.21,15.39-4.96,23.04c-0.35,5.33-1.54,10.53-2.15,15.81c2.64-1.16,3.41-4.27,4.96-6.53
		c14.53-23.98,31.91-46.07,51.7-65.47c10.85-10.43,22.43-20,34.46-28.86C360.36,267.47,364.01,265.93,365.48,262.32z"/>
	<linearGradient id="SVGID_12_" gradientUnits="userSpaceOnUse" x1="676.2266" y1="7.4171" x2="676.2266" y2="583.6122">
		<stop  offset="0" style="stop-color:#4CC1EF"/>
		<stop  offset="1" style="stop-color:#4064AC"/>
	</linearGradient>
	<path class="st13" d="M694.93,291.79c-19.4-21-42.15-38.51-66.78-52.13c-2.66-1.6-5.4-3.11-8.35-4.03
		c2.11,5.74,12.52,25.41,15.41,29.51c3.87,3.21,8.13,5.91,12.18,8.87c5.52,4.3,11,8.63,16.21,13.33
		c23.91,20.36,44.29,45.04,61.26,71.94c2.58,3.78,4.13,8.5,7.78,11.37c-0.84-12.14-3.54-24.03-6.06-35.88
		c-0.84-4.25-2.92-8.1-5.64-11.33C713.02,312.25,704.42,301.56,694.93,291.79z"/>
	<linearGradient id="SVGID_13_" gradientUnits="userSpaceOnUse" x1="499.7434" y1="7.4171" x2="499.7434" y2="583.6122">
		<stop  offset="0" style="stop-color:#4CC1EF"/>
		<stop  offset="1" style="stop-color:#4064AC"/>
	</linearGradient>
	<path class="st14" d="M263.83,355.48c2.69-20.79,9.14-40.77,16.73-60.11c12.21-29.51,29.99-56.49,52.05-78.8
		c25.34-26.5,56.66-46.51,90.53-58.47c13.27-4.92,27.08-8.04,40.9-10.68c-3.57,3.81-8.08,6.4-12.03,9.73
		c-23.93,20.21-45.2,44.05-62.19,70.96c-10.11,15.29-18,32.03-25.34,48.93c-5.14,13.26-9.93,26.71-13.43,40.56
		c-4.06,17.55-7.94,35.33-8.49,53.44h17.27c3.18-34.74,12.02-68.98,27-100.19c10.44-22.55,23.93-43.52,39.68-62.38
		c5.54-7.15,12.06-13.37,18.17-19.97c16.6-16.29,35.09-30.53,54.89-42.14c2.36,0.73,4.24,2.57,6.37,3.84
		c8.2,5.12,16.21,10.61,23.86,16.6c13.24,10.8,26.26,22.1,37.48,35.22c6.3,7.33,12.63,14.67,17.98,22.81
		c28.1,38.62,46.1,85.1,52.75,133.14c0.63,4.34,0.61,8.79,1.52,13.09h17.56c-2.65-31.38-9.58-62.44-21.44-91.41
		c-7.34-19.07-16.78-37.21-27.95-54.1c-16.82-26.25-37.74-49.55-61.47-69.05c-3.5-2.92-7.39-5.35-10.53-8.73
		c3.55-0.63,6.77,1.51,10.23,1.96c6.57,0.99,12.85,3.34,19.34,4.75c3.23,0.66,6.22,2.17,9.31,3.31
		c65.45,21.94,120.18,75.85,146.06,142.62c5.64,14.32,9.78,29.25,12.97,44.37c1.33,8.72,3.28,17.4,3.43,26.28h18.04
		c-4.97-59.31-29.48-116.62-68.53-159.78c-20.4-22.92-44.7-41.9-71.35-56.05c-30.84-16.28-64.74-25.71-99.07-28.8
		c-8.25-0.63-16.53-0.31-24.78-0.41c-11.17,0.04-22.23,1.89-33.23,3.81c-24.9,4.44-49.22,12.52-71.9,24.2
		c-40.28,21.03-75.37,53.11-100.23,92.55c-15.05,23.48-26.29,49.59-33.53,76.84c0,0-1.51,5.63-2.68,10.48
		c-0.32,1.21-0.61,2.44-0.83,3.68c-0.23,1.04-0.39,1.93-0.46,2.51v0.01c-0.39,2.34-0.74,4.68-1.2,7
		c-1.21,7.94-2.95,15.88-2.84,23.96h16.92C262.94,366.03,262.95,360.66,263.83,355.48z"/>
	<path class="st15" d="M583.48,230.1c-3.01-4.06-5.72-8.39-9.09-12.14c-2.07-2.46-5.43-2.57-8.24-3.42
		c-30.98-7.95-63.25-10.71-94.99-7.02c-14.21,1.25-28.07,4.91-42.01,7.9c-3.02,0.36-4.91,3.05-6.61,5.4
		c-3.02,4.33-6.13,8.6-9.14,12.93c-1.83,2.64-4.47,4.84-5.07,8.21c5.63-1.54,10.98-4.04,16.58-5.71
		c36.29-11.64,75.11-14.89,112.64-8.71c18.42,2.82,36.49,8.06,53.89,14.95C589.31,238.01,586.14,234.22,583.48,230.1z"/>
	<path class="st15" d="M365.48,262.32c2.64-5.52,5.65-10.82,8.34-16.31c1.77-3.64,4.57-6.66,6.01-10.48
		c-3.4,0.74-6.29,2.85-9.33,4.48c-22.9,12.49-43.72,28.88-62.38,47.55c-0.01,0.01-0.01,0.01-0.02,0.01
		c-5.1,4.53-10.27,11.24-10.27,11.24v0.03c-0.34,0.39-0.69,0.77-1.03,1.16c-6.12,7.08-11.98,14.41-17.42,22.09
		c-2.08,3.1-4.79,5.87-5.86,9.61c-2.28,7.51-3.21,15.39-4.96,23.04c-0.35,5.33-1.54,10.53-2.15,15.81c2.64-1.16,3.41-4.27,4.96-6.53
		c14.53-23.98,31.91-46.07,51.7-65.47c10.85-10.43,22.43-20,34.46-28.86C360.36,267.47,364.01,265.93,365.48,262.32z"/>
	<path class="st15" d="M694.93,291.79c-19.4-21-42.15-38.51-66.78-52.13c-2.66-1.6-5.4-3.11-8.35-4.03
		c2.11,5.74,12.52,25.41,15.41,29.51c3.87,3.21,8.13,5.91,12.18,8.87c5.52,4.3,11,8.63,16.21,13.33
		c23.91,20.36,44.29,45.04,61.26,71.94c2.58,3.78,4.13,8.5,7.78,11.37c-0.84-12.14-3.54-24.03-6.06-35.88
		c-0.84-4.25-2.92-8.1-5.64-11.33C713.02,312.25,704.42,301.56,694.93,291.79z"/>
	<path class="st15" d="M263.83,355.48c2.69-20.79,9.14-40.77,16.73-60.11c12.21-29.51,29.99-56.49,52.05-78.8
		c25.34-26.5,56.66-46.51,90.53-58.47c13.27-4.92,27.08-8.04,40.9-10.68c-3.57,3.81-8.08,6.4-12.03,9.73
		c-23.93,20.21-45.2,44.05-62.19,70.96c-10.11,15.29-18,32.03-25.34,48.93c-5.14,13.26-9.93,26.71-13.43,40.56
		c-4.06,17.55-7.94,35.33-8.49,53.44h17.27c3.18-34.74,12.02-68.98,27-100.19c10.44-22.55,23.93-43.52,39.68-62.38
		c5.54-7.15,12.06-13.37,18.17-19.97c16.6-16.29,35.09-30.53,54.89-42.14c2.36,0.73,4.24,2.57,6.37,3.84
		c8.2,5.12,16.21,10.61,23.86,16.6c13.24,10.8,26.26,22.1,37.48,35.22c6.3,7.33,12.63,14.67,17.98,22.81
		c28.1,38.62,46.1,85.1,52.75,133.14c0.63,4.34,0.61,8.79,1.52,13.09h17.56c-2.65-31.38-9.58-62.44-21.44-91.41
		c-7.34-19.07-16.78-37.21-27.95-54.1c-16.82-26.25-37.74-49.55-61.47-69.05c-3.5-2.92-7.39-5.35-10.53-8.73
		c3.55-0.63,6.77,1.51,10.23,1.96c6.57,0.99,12.85,3.34,19.34,4.75c3.23,0.66,6.22,2.17,9.31,3.31
		c65.45,21.94,120.18,75.85,146.06,142.62c5.64,14.32,9.78,29.25,12.97,44.37c1.33,8.72,3.28,17.4,3.43,26.28h18.04
		c-4.97-59.31-29.48-116.62-68.53-159.78c-20.4-22.92-44.7-41.9-71.35-56.05c-30.84-16.28-64.74-25.71-99.07-28.8
		c-8.25-0.63-16.53-0.31-24.78-0.41c-11.17,0.04-22.23,1.89-33.23,3.81c-24.9,4.44-49.22,12.52-71.9,24.2
		c-40.28,21.03-75.37,53.11-100.23,92.55c-15.05,23.48-26.29,49.59-33.53,76.84c0,0-1.51,5.63-2.68,10.48
		c-0.32,1.21-0.61,2.44-0.83,3.68c-0.23,1.04-0.39,1.93-0.46,2.51v0.01c-0.39,2.34-0.74,4.68-1.2,7
		c-1.21,7.94-2.95,15.88-2.84,23.96h16.92C262.94,366.03,262.95,360.66,263.83,355.48z"/>
</g>
</svg>
