<svg width="40" height="41" viewBox="0 0 40 41" fill="none" xmlns="http://www.w3.org/2000/svg">
<path d="M31.6668 15.3333C31.6668 17.75 30.9502 19.9667 29.7168 21.8167C27.9168 24.4833 25.0668 26.3666 21.7502 26.85C21.1835 26.95 20.6002 27 20.0002 27C19.4002 27 18.8168 26.95 18.2502 26.85C14.9335 26.3666 12.0835 24.4833 10.2835 21.8167C9.05016 19.9667 8.3335 17.75 8.3335 15.3333C8.3335 8.88329 13.5502 3.66663 20.0002 3.66663C26.4502 3.66663 31.6668 8.88329 31.6668 15.3333Z" stroke="#3F64AB" stroke-width="2.5" stroke-linecap="round" stroke-linejoin="round"/>
<path opacity="0.4" d="M35.417 31.1166L32.667 31.7666C32.0503 31.9166 31.567 32.3833 31.4336 32.9999L30.8503 35.4499C30.5336 36.7833 28.8336 37.1833 27.9503 36.1333L20.0003 26.9999L12.0503 36.1499C11.167 37.1999 9.46696 36.7999 9.15029 35.4666L8.56696 33.0166C8.41696 32.3999 7.93363 31.9166 7.33363 31.7833L4.58363 31.1333C3.31696 30.8333 2.86696 29.2499 3.78363 28.3332L10.2836 21.8333C12.0836 24.4999 14.9336 26.3833 18.2503 26.8666C18.817 26.9666 19.4003 27.0166 20.0003 27.0166C20.6003 27.0166 21.1836 26.9666 21.7503 26.8666C25.067 26.3833 27.917 24.4999 29.717 21.8333L36.217 28.3332C37.1336 29.2332 36.6836 30.8166 35.417 31.1166Z" stroke="#3F64AB" stroke-width="2.5" stroke-linecap="round" stroke-linejoin="round"/>
<path opacity="0.4" d="M20.9668 10.2999L21.9501 12.2665C22.0835 12.5332 22.4335 12.7999 22.7501 12.8499L24.5335 13.1499C25.6668 13.3332 25.9335 14.1665 25.1168 14.9832L23.7335 16.3665C23.5001 16.5999 23.3668 17.0499 23.4501 17.3832L23.8501 19.0999C24.1668 20.4499 23.4501 20.9832 22.2501 20.2665L20.5835 19.2832C20.2835 19.0999 19.7835 19.0999 19.4835 19.2832L17.8168 20.2665C16.6168 20.9665 15.9001 20.4499 16.2168 19.0999L16.6168 17.3832C16.6835 17.0665 16.5668 16.5999 16.3335 16.3665L14.9501 14.9832C14.1335 14.1665 14.4001 13.3499 15.5335 13.1499L17.3168 12.8499C17.6168 12.7999 17.9668 12.5332 18.1001 12.2665L19.0835 10.2999C19.5668 9.23321 20.4335 9.23321 20.9668 10.2999Z" stroke="#3F64AB" stroke-width="2.5" stroke-linecap="round" stroke-linejoin="round"/>
</svg>
