<svg width="41" height="41" viewBox="0 0 41 41" fill="none" xmlns="http://www.w3.org/2000/svg">
<path d="M35.1639 23.0937H28.3514C28.226 23.0938 28.1018 23.0686 27.9862 23.0198C27.8706 22.971 27.766 22.8995 27.6786 22.8095C27.5912 22.7195 27.5227 22.6129 27.4772 22.4959C27.4318 22.379 27.4102 22.2541 27.4139 22.1287L27.5108 18.8012C27.5177 18.6013 27.4518 18.4057 27.3253 18.2508C27.1989 18.0958 27.0205 17.992 26.8233 17.9587L14.6652 15.7875C14.7226 15.9525 14.8219 16.0997 14.9534 16.2147C15.0849 16.3298 15.244 16.4087 15.4152 16.4437C16.4658 16.7106 20.6364 18.3725 21.1089 18.5612C21.2829 18.6308 21.4321 18.7509 21.5371 18.9061C21.6422 19.0613 21.6983 19.2444 21.6983 19.4318V22.1562C21.6983 22.4049 21.5995 22.6433 21.4237 22.8191C21.2479 22.9949 21.0094 23.0937 20.7608 23.0937H5.08643C4.83779 23.0937 4.59933 22.9949 4.42351 22.8191C4.2477 22.6433 4.14893 22.4049 4.14893 22.1562V4.53558C4.14893 4.28694 4.2477 4.04849 4.42351 3.87267C4.59933 3.69686 4.83779 3.59808 5.08643 3.59808H35.1639C35.4126 3.59808 35.651 3.69686 35.8268 3.87267C36.0027 4.04849 36.1014 4.28694 36.1014 4.53558V22.1562C36.1014 22.4049 36.0027 22.6433 35.8268 22.8191C35.651 22.9949 35.4126 23.0937 35.1639 23.0937ZM29.3189 21.2187H34.2264V5.47308H6.02393V21.2187H19.8258V20.0681C18.3171 19.4718 15.6421 18.4356 14.9558 18.2612C14.3376 18.1032 13.785 17.7542 13.3767 17.2637C12.9684 16.7733 12.7253 16.1666 12.6821 15.53C12.6512 15.2949 12.6767 15.0559 12.7565 14.8327C12.8363 14.6095 12.968 14.4085 13.1408 14.2462C13.3157 14.0813 13.5266 13.9593 13.7568 13.8901C13.987 13.8209 14.2302 13.8063 14.4671 13.8475L27.1589 16.1131C27.7963 16.2299 28.371 16.5704 28.7796 17.0733C29.1882 17.5762 29.4038 18.2085 29.3877 18.8562L29.3189 21.2187Z" fill="#3F64AB"/>
<path opacity="0.4" d="M24.7357 15.595C23.9749 15.5951 23.2312 15.3696 22.5986 14.947C21.966 14.5244 21.4729 13.9236 21.1817 13.2208C20.8905 12.5179 20.8143 11.7444 20.9628 10.9983C21.1112 10.2521 21.4776 9.56671 22.0156 9.02879C22.5536 8.49087 23.2391 8.12458 23.9853 7.97627C24.7315 7.82795 25.5049 7.90426 26.2077 8.19555C26.9106 8.48683 27.5112 8.98001 27.9337 9.6127C28.3562 10.2454 28.5816 10.9892 28.5814 11.75C28.5799 12.7694 28.1742 13.7466 27.4533 14.4674C26.7324 15.1881 25.7552 15.5936 24.7357 15.595ZM24.7357 9.77809C24.3459 9.77797 23.9647 9.89346 23.6405 10.11C23.3162 10.3265 23.0635 10.6342 22.9142 10.9944C22.7648 11.3546 22.7257 11.7509 22.8016 12.1333C22.8776 12.5157 23.0652 12.867 23.3408 13.1428C23.6164 13.4186 23.9676 13.6064 24.3499 13.6826C24.7323 13.7588 25.1287 13.7199 25.4889 13.5708C25.8492 13.4217 26.1571 13.1691 26.3738 12.845C26.5905 12.5209 26.7062 12.1398 26.7064 11.75C26.706 11.2273 26.4984 10.7261 26.1289 10.3564C25.7594 9.98676 25.2584 9.77875 24.7357 9.77809ZM9.65074 32.8125C8.89011 32.8118 8.14673 32.5857 7.5146 32.1627C6.88248 31.7396 6.38998 31.1386 6.09938 30.4357C5.80878 29.7327 5.73313 28.9594 5.882 28.2135C6.03086 27.4676 6.39755 26.7825 6.93571 26.245C7.47386 25.7074 8.15932 25.3415 8.90542 25.1935C9.65151 25.0455 10.4247 25.122 11.1274 25.4134C11.83 25.7048 12.4304 26.198 12.8527 26.8306C13.2751 27.4632 13.5004 28.2068 13.5001 28.9675C13.4986 29.9875 13.0925 30.9653 12.3708 31.6862C11.6491 32.4071 10.6708 32.8121 9.65074 32.8125ZM9.65074 26.9956C9.26103 26.9962 8.88024 27.1123 8.55649 27.3293C8.23275 27.5462 7.98057 27.8543 7.83184 28.2145C7.6831 28.5747 7.64447 28.9709 7.72083 29.3531C7.79719 29.7353 7.98512 30.0862 8.26087 30.3616C8.53661 30.637 8.8878 30.8245 9.27006 30.9004C9.65232 30.9762 10.0485 30.9371 10.4085 30.7879C10.7685 30.6387 11.0763 30.3862 11.2928 30.0621C11.5094 29.7381 11.625 29.3572 11.6251 28.9675C11.6236 28.4449 11.4149 27.9443 11.0448 27.5755C10.6746 27.2066 10.1733 26.9996 9.65074 27V26.9956Z" fill="#3F64AB"/>
<path d="M13.7263 37.4019C13.4777 37.4019 13.2392 37.3031 13.0634 37.1273C12.8876 36.9515 12.7888 36.713 12.7888 36.4644V36.2569C12.7888 35.6767 12.5583 35.1203 12.1481 34.7101C11.7379 34.2998 11.1815 34.0694 10.6013 34.0694H8.70068C8.12052 34.0694 7.56412 34.2998 7.15389 34.7101C6.74365 35.1203 6.51318 35.6767 6.51318 36.2569V36.4644C6.51318 36.713 6.41441 36.9515 6.2386 37.1273C6.06278 37.3031 5.82432 37.4019 5.57568 37.4019C5.32704 37.4019 5.08859 37.3031 4.91277 37.1273C4.73696 36.9515 4.63818 36.713 4.63818 36.4644V36.2569C4.63951 35.1798 5.06794 34.1473 5.82952 33.3857C6.5911 32.6241 7.62365 32.1957 8.70068 32.1944H10.6013C11.6783 32.1957 12.7109 32.6241 13.4725 33.3857C14.234 34.1473 14.6625 35.1798 14.6638 36.2569V36.4644C14.6638 36.713 14.565 36.9515 14.3892 37.1273C14.2134 37.3031 13.9749 37.4019 13.7263 37.4019ZM20.1251 32.8125C19.3643 32.8126 18.6206 32.5871 17.988 32.1646C17.3554 31.742 16.8623 31.1414 16.5711 30.4386C16.2799 29.7358 16.2037 28.9624 16.352 28.2163C16.5003 27.4701 16.8666 26.7847 17.4045 26.2468C17.9424 25.7088 18.6277 25.3424 19.3738 25.1939C20.12 25.0455 20.8933 25.1216 21.5962 25.4127C22.299 25.7038 22.8998 26.1968 23.3224 26.8293C23.7451 27.4618 23.9707 28.2055 23.9707 28.9662C23.9695 29.9859 23.564 30.9634 22.8431 31.6845C22.1222 32.4055 21.1447 32.8112 20.1251 32.8125ZM20.1251 27C19.7351 26.9999 19.3539 27.1154 19.0297 27.332C18.7054 27.5485 18.4526 27.8564 18.3034 28.2166C18.1541 28.5768 18.115 28.9732 18.191 29.3557C18.2671 29.7381 18.4548 30.0894 18.7305 30.3651C19.0063 30.6409 19.3576 30.8286 19.74 30.9047C20.1225 30.9807 20.5189 30.9416 20.8791 30.7923C21.2393 30.643 21.5472 30.3903 21.7637 30.066C21.9803 29.7418 22.0958 29.3606 22.0957 28.9706C22.095 28.4482 21.8872 27.9473 21.5178 27.5779C21.1483 27.2085 20.6475 27.0007 20.1251 27Z" fill="#3F64AB"/>
<path opacity="0.4" d="M24.2006 37.4019C23.9519 37.4019 23.7135 37.3031 23.5377 37.1273C23.3618 36.9515 23.2631 36.713 23.2631 36.4644V36.2569C23.2631 35.6767 23.0326 35.1203 22.6224 34.7101C22.2121 34.2998 21.6557 34.0694 21.0756 34.0694H19.1743C18.5942 34.0694 18.0378 34.2998 17.6275 34.7101C17.2173 35.1203 16.9868 35.6767 16.9868 36.2569V36.4644C16.9868 36.713 16.888 36.9515 16.7122 37.1273C16.5364 37.3031 16.298 37.4019 16.0493 37.4019C15.8007 37.4019 15.5622 37.3031 15.3864 37.1273C15.2106 36.9515 15.1118 36.713 15.1118 36.4644V36.2569C15.1131 35.1798 15.5416 34.1473 16.3032 33.3857C17.0647 32.6241 18.0973 32.1957 19.1743 32.1944H21.0756C22.1526 32.1957 23.1851 32.6241 23.9467 33.3857C24.7083 34.1473 25.1367 35.1798 25.1381 36.2569V36.4644C25.1381 36.713 25.0393 36.9515 24.8635 37.1273C24.6877 37.3031 24.4492 37.4019 24.2006 37.4019ZM30.5993 32.8125C29.8386 32.8126 29.0949 32.5871 28.4623 32.1646C27.8297 31.742 27.3366 31.1414 27.0454 30.4386C26.7542 29.7358 26.6779 28.9624 26.8263 28.2163C26.9746 27.4701 27.3409 26.7847 27.8788 26.2468C28.4166 25.7088 29.102 25.3424 29.8481 25.1939C30.5942 25.0455 31.3676 25.1216 32.0704 25.4127C32.7733 25.7038 33.374 26.1968 33.7967 26.8293C34.2193 27.4618 34.4449 28.2055 34.4449 28.9662C34.4438 29.9859 34.0383 30.9634 33.3173 31.6845C32.5964 32.4055 31.6189 32.8112 30.5993 32.8125ZM30.5993 26.9956C30.2094 26.9955 29.8282 27.111 29.5039 27.3276C29.1796 27.5441 28.9269 27.852 28.7776 28.2122C28.6283 28.5724 28.5892 28.9688 28.6653 29.3513C28.7413 29.7337 28.9291 30.085 29.2048 30.3608C29.4805 30.6365 29.8318 30.8242 30.2143 30.9003C30.5967 30.9763 30.9931 30.9372 31.3533 30.788C31.7136 30.6387 32.0214 30.3859 32.238 30.0617C32.4545 29.7374 32.5701 29.3562 32.5699 28.9662C32.568 28.4446 32.3596 27.945 31.9903 27.5765C31.621 27.2081 31.1209 27.0008 30.5993 27V26.9956Z" fill="#3F64AB"/>
<path d="M34.6741 37.4019C34.4254 37.4019 34.187 37.3031 34.0111 37.1273C33.8353 36.9515 33.7366 36.713 33.7366 36.4644V36.2569C33.7366 35.6767 33.5061 35.1203 33.0959 34.7101C32.6856 34.2999 32.1292 34.0694 31.5491 34.0694H29.6484C29.0683 34.0694 28.5119 34.2999 28.1016 34.7101C27.6914 35.1203 27.4609 35.6767 27.4609 36.2569V36.4644C27.4609 36.713 27.3622 36.9515 27.1864 37.1273C27.0105 37.3031 26.7721 37.4019 26.5234 37.4019C26.2748 37.4019 26.0363 37.3031 25.8605 37.1273C25.6847 36.9515 25.5859 36.713 25.5859 36.4644V36.2569C25.5873 35.1799 26.0157 34.1473 26.7773 33.3857C27.5389 32.6242 28.5714 32.1957 29.6484 32.1944H31.5491C32.6261 32.1957 33.6586 32.6242 34.4202 33.3857C35.1818 34.1473 35.6102 35.1799 35.6116 36.2569V36.4644C35.6116 36.713 35.5128 36.9515 35.337 37.1273C35.1612 37.3031 34.9227 37.4019 34.6741 37.4019Z" fill="#3F64AB"/>
</svg>
